<?xml version="1.0" encoding="UTF-8" standalone="no"?>
<!-- Created with Inkscape (http://www.inkscape.org/) -->

<svg
   xmlns:dc="http://purl.org/dc/elements/1.1/"
   xmlns:cc="http://creativecommons.org/ns#"
   xmlns:rdf="http://www.w3.org/1999/02/22-rdf-syntax-ns#"
   xmlns:svg="http://www.w3.org/2000/svg"
   xmlns="http://www.w3.org/2000/svg"
   xmlns:sodipodi="http://sodipodi.sourceforge.net/DTD/sodipodi-0.dtd"
   xmlns:inkscape="http://www.inkscape.org/namespaces/inkscape"
   width="210mm"
   height="297mm"
   viewBox="0 0 744.09448819 1052.3622047"
   id="svg2"
   version="1.1"
   inkscape:version="0.91 r13725"
   sodipodi:docname="RAVEN.svg">
  <defs
     id="defs4" />
  <sodipodi:namedview
     id="base"
     pagecolor="#ffffff"
     bordercolor="#666666"
     borderopacity="1.0"
     inkscape:pageopacity="0.0"
     inkscape:pageshadow="2"
     inkscape:zoom="2.8284271"
     inkscape:cx="358.42666"
     inkscape:cy="904.99636"
     inkscape:document-units="px"
     inkscape:current-layer="layer1"
     showgrid="false"
     inkscape:window-width="1114"
     inkscape:window-height="742"
     inkscape:window-x="293"
     inkscape:window-y="441"
     inkscape:window-maximized="0" />
  <metadata
     id="metadata7">
    <rdf:RDF>
      <cc:Work
         rdf:about="">
        <dc:format>image/svg+xml</dc:format>
        <dc:type
           rdf:resource="http://purl.org/dc/dcmitype/StillImage" />
        <dc:title></dc:title>
      </cc:Work>
    </rdf:RDF>
  </metadata>
  <g
     inkscape:label="Layer 1"
     inkscape:groupmode="layer"
     id="layer1">
    <path
       style="fill:#000000"
       d="m 357.04828,219.32142 c 6.28142,1.09723 10.04561,-9.80651 13.39709,-3.45254 3.27678,-8.03181 11.47193,-3.10454 10.08055,-11.7996 2.12544,-1.04921 1.20243,8.28927 3.25433,0.1696 -3.14268,-5.53133 -4.59826,-13.16079 -9.47866,-16.9987 13.30367,1.57325 -1.51921,-6.81167 -0.12833,-6.37765 5.26816,-0.91058 0.2164,-6.99426 -3.70375,-2.32702 -10.90256,-2.3592 7.62651,-1.46811 4.85883,-9.53048 4.84055,-6.49031 -9.36657,-20.17486 -6.51326,-18.73925 6.23694,3.41694 11.10227,2.38379 9.26359,9.44822 2.32326,10.35784 3.04572,0.46322 1.88154,-2.6926 3.3572,2.81563 20.16061,4.51561 17.40216,7.15172 -5.37028,5.86637 5.55344,1.26484 6.549,9.43619 0.78085,6.34849 13.01626,18.63547 5.47489,26.65877 1.58912,-11.55125 -3.06286,-24.4971 -14.41076,-29.2352 -12.60954,-0.98417 7.83689,17.06496 -4.02423,6.49649 -10.5802,-7.90486 5.19822,7.08826 5.80724,12.04369 3.49671,5.05659 0.007,19.429 -1.61883,19.35326 0.72086,-11.06402 0.0581,-23.48048 -9.79258,-30.70013 -6.97547,-0.66217 -6.0292,-17.41584 -7.80195,-4.17546 6.73288,7.31795 16.91851,14.88499 15.31261,26.33044 -0.44607,4.11107 0.19293,19.62931 4.92204,12.03405 1.28199,-5.9406 2.40096,-15.94363 3.15746,-19.70644 11.88166,-2.36137 -7.22007,-19.19265 -7.13841,-20.3013 10.78752,6.47716 15.07247,18.28842 12.49527,30.37201 -3.36806,6.74614 8.31548,19.2871 9.03336,8.76598 -10.93209,-7.1351 7.2139,-14.42215 3.8295,-21.69608 9.25678,-5.3768 1.12065,-23.79052 -9.91674,-25.11791 -10.96438,-2.92882 -1.95119,-2.60022 3.5018,-0.48089 10.18204,1.93685 21.99848,10.00654 18.51104,21.87011 3.28971,7.39134 12.1854,-9.03016 5.01462,-14.34599 -1.64032,-2.97627 -10.73159,-11.99704 -3.41794,-5.12856 7.98178,2.03092 5.28602,25.92601 12.70573,12.80643 4.73999,-10.36353 -16.64466,-17.882 -5.0187,-23.17317 -1.52015,-3.96814 -7.8444,-10.51877 -8.50699,-10.20309 -3.34336,3.56159 -0.39701,-8.28483 3.19401,0.52304 8.9602,8.89046 6.42215,-6.67517 -1.27747,-7.89729 -3.61196,-3.39954 15.16012,-3.00864 7.0389,1.99925 3.88324,1.60823 14.26078,2.92237 4.08965,5.7323 -4.91013,7.95521 15.80285,5.3224 21.12427,4.88799 10.35583,-1.23826 20.57677,-4.43834 29.4031,-9.92955 -9.12363,9.38866 -24.0856,13.38154 -37.35533,12.09283 -4.62205,-1.83057 -24.71,-1.18179 -11.35312,3.69409 17.22259,3.77001 37.10422,2.0408 50.48891,-10.51503 -1.75139,5.14039 -16.63071,12.25321 -25.36175,13.09479 -10.46031,2.28171 -22.91746,-1.40827 -32.24117,0.44874 0.002,6.93993 17.24781,3.87742 13.54623,5.46676 -7.88072,1.16899 -7.36011,3.45977 1.12788,4.55336 10.83015,2.52028 24.35462,1.11099 32.74643,-6.0259 6.24191,-5.77699 15.85526,-8.26975 19.91696,-16.57031 5.30923,-3.84084 1.64437,-17.829 -5.30668,-11.84108 7.96566,-8.33773 15.13137,-23.0482 4.39478,-32.25051 -3.93604,-4.853562 -17.82354,-19.2799 -15.31177,-4.322836 11.91567,2.345246 6.46456,16.567336 -1.68016,21.559176 -9.32017,8.18546 -21.15736,13.41389 -33.25816,15.68399 -0.55633,-6.50756 8.56595,-11.16132 14.38804,-16.11163 -0.69616,-3.88126 7.83445,-19.43218 0.34049,-17.09975 -2.00831,8.95519 -7.73993,20.0724 -17.07599,20.09089 -1.17361,6.79284 -19.11739,9.43146 -4.88486,3.641 5.04506,-5.26455 15.16446,-11.46939 12.56638,-19.55912 -0.37209,-3.97823 -9.39364,10.34427 -13.28953,12.95518 -4.87925,4.01305 -9.57947,5.97319 -2.18195,0.49214 6.61812,-5.43844 16.36697,-16.72746 11.49875,-24.114879 -4.07855,5.337929 -9.0185,18.616879 -13.85486,18.495349 7.22458,-6.93603 14.67667,-18.906916 6.61633,-28.015756 -8.54331,-1.853699 3.70265,18.961976 -9.42323,22.144166 -17.03809,11.57 -38.5492,8.02226 -57.70394,5.7418 1.82789,6.98143 -9.27025,-7.17702 -13.89288,-11.49007 -4.38627,-7.948662 -19.09393,-14.203532 -21.01993,-19.802819 7.11297,-8.61638 -13.24539,-0.807959 -0.7138,-6.609825 4.38233,-7.69983 -23.66745,2.091016 -7.03538,-3.460617 6.98267,0.955991 9.83377,-11.677229 1.91658,-10.028554 8.05783,-12.472467 -13.92305,2.754412 -20.35324,0.932633 -5.17285,0.764764 -20.00273,7.460846 -7.63963,0.73143 2.25869,-6.66177 -13.7891,1.185344 -17.83258,1.387208 -12.74461,1.70948 -23.90833,10.541023 -24.32254,23.626741 -0.41127,-12.621845 -5.12721,6.307611 4.37757,1.179852 5.27559,-3.680036 13.62993,-8.12447 16.78385,-2.870615 4.05002,-4.77532 -1.97351,8.868851 6.38424,2.548313 -7.24944,5.736689 5.21579,11.248683 -3.53687,13.391303 3.03624,-6.129565 -7.94921,-20.495183 -7.04779,-6.98895 -5.67416,5.91604 1.16531,7.35539 5.11768,6.77206 -3.2499,4.91529 -17.14868,-5.585461 -17.77615,-1.95685 -4.15226,-7.337318 -9.61928,-0.93488 -8.22666,4.74051 -1.8286,-9.386291 -10.48061,-1.56689 -10.08244,1.73005 -3.40007,-7.84822 -9.84202,-0.34147 -8.52638,5.62403 -6.56281,-8.96654 -6.61256,2.38038 -10.38567,3.96028 -7.48327,-1.71047 -3.25876,10.60071 -12.41898,7.16932 -3.87839,6.97417 -6.96935,18.2018 -3.87267,26.13674 4.43655,-3.21571 8.62641,-18.1324 18.63801,-20.84516 7.95382,-5.60346 18.90753,-10.7111 27.973,-10.2215 -5.15151,-0.16158 -19.49488,6.39117 -6.73197,6.26016 5.16493,-1.62943 27.87508,-3.88582 12.20897,-7.3362 -8.9125,-0.74214 9.83203,-1.09047 11.95735,0.74919 13.19807,6.87854 -13.95571,4.33902 -18.47022,7.09475 -7.25061,1.84394 -23.12672,8.68263 -22.95835,11.57211 11.15715,-4.76278 23.45685,-6.05534 35.43277,-4.76286 1.79123,4.33775 14.78137,5.36749 3.81844,5.66018 -12.25174,-8.6752 -4.12409,21.33895 -1.81488,7.65885 1.5345,6.06384 9.67184,5.23887 10.75398,12.17102 11.27133,3.85474 -5.18769,-17.61294 1.8744,-8.98935 3.29977,8.83243 15.95811,16.89253 20.03313,20.84349 -11.31483,-3.10717 -21.57708,10.17277 -33.88349,5.58537 -4.55503,-5.56903 -26.98285,-5.28028 -12.35812,0.962 -1.01891,0.0431 -19.04195,5.96525 -5.53042,9.74632 11.37527,-2.24803 -3.25825,12.13978 8.25505,8.46954 7.04937,-3.62336 17.33996,-0.0229 20.77703,-5.4744 0.63802,4.35543 1.85493,10.82899 5.92749,5.71612 4.89666,5.68027 9.02092,-12.37434 7.23429,-1.12157 4.85147,5.45465 5.11283,-12.55078 11.2351,-5.7361 -2.83394,-5.28519 -4.22897,-8.67426 -5.01056,-2.44064 -3.60118,-3.90991 -1.09671,8.26014 -8.24337,0.89398 -2.96662,0.6678 0.0879,10.58795 -5.62464,4.68181 -4.09064,4.72962 -3.2476,-12.59806 -8.92905,-3.58769 -4.87019,2.75669 -14.66716,3.436 -19.19214,4.41772 1.91938,-4.40593 19.07923,-5.42629 7.91101,-8.82253 -3.79756,1.8853 -22.36795,1.21641 -11.48904,-3.21122 7.90074,0.30092 15.43782,3.55766 19.26769,-1.82128 11.08057,1.60214 19.7834,-7.90622 29.0114,-5.56498 4.38629,-1.78471 0.001,9.25346 4.09437,5.73176 0.83131,-2.04736 8.02818,10.37314 1.08615,3.32362 -9.01753,1.02735 3.50252,10.51917 -4.32087,8.00707 -1.92446,6.28139 9.72256,-1.74266 3.90813,-5.49995 7.98593,9.64341 6.41239,-2.3118 4.6079,-5.12446 8.344,7.89247 4.98342,-6.37892 -2.6505,-6.23503 8.90557,4.26979 19.69041,4.56715 26.6112,12.96735 4.52351,4.26922 18.53901,9.11662 9.97142,15.95996 -7.46667,-0.83362 -19.07292,-5.04625 -22.26268,4.19145 1.44154,4.76529 12.89772,-4.00603 5.3582,4.4082 -4.08132,10.5363 14.38668,-3.17382 7.30567,6.76109 2.09141,1.65148 5.94733,0.40602 8.41916,0.44154 z m -0.76803,-4.1444 c 7.69324,-1.81732 8.65731,-12.60644 0.0321,-5.41967 -6.10901,1.81064 -19.9648,7.00451 -7.76575,0.37825 7.37872,0.76349 18.76686,-7.85339 15.01378,-14.87066 -4.02718,-3.38051 -9.87519,-12.57085 -10.32321,-4.4317 -2.52626,-9.03352 -13.46045,-15.75837 -22.37938,-15.14918 -11.80926,-4.36366 -23.84889,-10.963 -30.94318,-21.6179 4.94314,1.50243 0.0842,-7.65137 1.12968,-0.50246 -5.83356,-5.5952 -6.11742,-15.73715 -13.71234,-20.50595 -3.08693,-2.85094 -8.23239,-0.41603 -12.2048,-0.99325 -4.93435,0.16427 -9.86871,0.32854 -14.80306,0.49281 10.15138,-3.07878 20.81502,-5.67093 31.4499,-4.93214 4.91075,4.92992 13.75173,-0.13737 4.95351,-3.79445 -13.45693,-11.50662 -33.26031,-6.87604 -47.88384,-0.2305 -10.47798,5.25732 -22.84321,11.88149 -24.76558,24.70631 -2.49532,-5.161 3.37224,-21.03728 11.62091,-21.9724 0.56936,-7.6513 9.34742,-2.39376 9.37454,-11.94376 6.7824,9.20995 5.95151,-2.48096 9.36684,-5.99836 3.69735,11.25784 7.51291,1.36492 8.91312,-3.77168 3.9327,9.79572 10.80368,5.81763 7.75902,-3.25514 3.38743,3.30991 9.46701,12.33545 9.68373,3.58613 4.76525,3.34231 17.362,6.18731 22.32222,-2.80636 -1.18029,-3.90495 -3.4944,-1.15697 -0.31418,-5.295487 -3.25023,-3.195927 -3.51185,-1.520122 -1.33797,-6.352232 -5.5066,-1.576819 -6.18851,-7.82762 -11.1762,-8.201946 -3.00965,2.418661 -6.42459,-6.223522 -7.17768,3.181208 -1.40414,-11.022603 -9.4053,10.153621 -6.51747,-3.034641 3.31594,-6.691282 13.94659,-16.05258 16.66959,-8.48183 13.10918,-0.142874 25.83661,-8.251469 38.32697,-7.624611 -3.84544,0.789397 -23.15071,4.164372 -10.6114,6.436705 4.73072,0.504115 13.26109,1.003751 3.88603,0.999231 -13.62679,-1.802797 -0.19855,10.910339 6.45643,8.300771 9.06703,2.312712 17.8403,7.542598 25.95508,12.993249 8.43646,7.145483 14.21794,15.959793 22.20158,23.471603 6.67648,8.41673 -9.79375,2.64319 -5.199,6.38371 -3.5702,-1.75374 -8.25378,-12.08705 -13.92997,-2.85606 1.55882,-1.65735 12.82873,3.0059 11.69945,4.40287 -4.79146,-2.86233 -11.37238,-3.40724 -2.92189,0.53559 5.18773,1.68754 9.7555,5.20888 2.1428,1.87416 -4.73825,-2.48114 -18.52666,-7.83693 -6.53095,-1.09265 2.60243,6.30633 -2.80375,-0.92569 -5.82096,3.25872 1.67962,4.07106 6.88144,3.90513 1.79959,-0.30468 5.78534,-0.49805 6.70709,8.49423 4.22808,4.08883 -4.24432,-3.23852 5.40117,7.84628 -0.91695,3.61347 -3.76568,2.80878 -1.34825,-5.68908 -5.72439,-1.7119 3.77474,4.16252 -3.70289,3.97114 2.81266,8.33629 0.45975,2.37562 -8.29073,-8.38325 -10.99246,-10.11401 -1.11292,7.13995 14.33239,12.97534 18.58762,20.28752 5.27891,3.65989 6.35396,15.61335 1.64871,17.36671 2.34113,-14.43179 -12.22115,-22.46761 -21.31288,-30.6608 -3.19768,-4.86731 -16.50961,-8.68624 -7.9723,0.0198 4.63726,2.77664 14.46948,21.44288 5.43491,9.50542 -10.01021,-11.23891 -24.39512,-19.16214 -30.86331,-33.19716 -5.19788,-13.26137 10.09967,-29.607662 23.39742,-22.315016 12.64722,4.964946 22.5501,14.740856 32.19667,23.682276 1.04732,3.1329 6.50259,0.57377 6.22241,0.14755 8.29297,2.4661 -12.17135,-10.79976 -7.72688,-4.12821 -7.26376,-1.81736 5.29039,-7.78052 -5.24234,-8.34656 -5.51115,-2.45737 -1.25469,2.94334 -7.70275,-3.60999 -2.59041,-2.26555 -11.83134,-9.435109 -3.19379,-3.68097 4.50202,4.53845 10.70529,3.71771 2.23762,-0.488135 -3.32753,-1.621773 -8.92413,-7.282145 -2.17174,-6.22347 -11.18948,-4.616574 -25.93765,-8.520672 -36.7754,-0.69301 -13.50748,9.879075 -9.84201,30.839735 1.68751,40.783535 8.32154,9.89085 21.41784,15.80898 26.90481,27.93716 0.56636,4.35777 -9.973,10.62293 0.6327,9.53099 10.63623,1.51066 10.06819,-15.39514 9.53751,-16.319 6.28786,5.82366 13.22946,15.72808 5.52662,23.4102 -1.12596,6.46365 13.67922,-1.17341 6.14302,4.91049 7.7674,1.51666 -3.5251,9.46097 7.47968,12.00157 1.83735,3.79776 9.58766,8.84172 1.41716,6.27767 5.87606,4.32972 -4.77822,10.83308 -1.81356,1.3272 -4.41619,4.15137 -0.72307,9.12048 -8.19369,7.84454 -0.13946,5.37844 -19.4199,8.87535 -10.2649,5.01486 l 0.33416,-0.15945 z m -22.94113,-44.7575 c -9.82609,-5.11215 4.20533,4.65822 0,0 z m -11.48233,-4.88165 c -7.22718,-6.20373 2.32976,-3.15065 4.22293,-1.71588 -2.16729,-2.26874 -8.58025,-7.03339 -7.72185,-0.84043 -4.8506,-2.77888 -17.93131,-15.46928 -7.80057,-4.53049 -0.16063,1.15512 17.40945,12.29445 11.29949,7.0868 z m -7.07654,-8.93156 c -5.38789,-5.96265 -5.87956,-4.09446 0,0 z m -1.58179,-12.26198 c 5.42879,-3.53024 -11.99912,-13.14175 -7.31685,-5.02272 -2.27924,-3.0794 -10.87448,-7.73915 -5.84602,-0.87078 5.28699,0.37286 -2.94714,5.98954 -2.65761,-1.39517 -5.02056,-7.04413 -3.32052,-1.85561 -1.40507,1 -11.78174,-10.65165 7.59743,13.24996 15.75205,6.63243 l 1.4735,-0.34376 0,0 z m -10.72723,-2.08399 c -1.15296,-7.22191 16.42593,2.66957 4.31035,0.33178 -2.28966,-2.31938 -2.52805,-0.067 -4.31035,-0.33178 z m -2.81854,-6.05902 c -3.076,-4.58698 6.08472,5.79728 0,0 z m 34.54577,-0.85699 c 5.41649,-8.38083 -8.87848,0.84267 0,0 z m 22.08179,-0.39301 c -5.40777,-3.57287 -2.01703,2.35227 0,0 z m -16.5,-5.49198 c -3.11333,-8.4559 -13.1078,-0.75812 -3.17202,1.78804 1.2075,0.3408 3.26037,-0.14427 3.17202,-1.78804 z m -4.55887,-1.06319 c -4.55664,-4.47359 7.51463,4.86946 0,0 z m -10.52835,-1.69483 c -2.26207,-2.98055 6.09119,2.69156 0.62754,-3.1625 -7.3241,-3.55676 2.10823,10.5797 -0.62754,3.1625 z m 37.64609,0.7182 c -6.07296,-4.43745 -1.11447,2.76277 1.05988,1.04625 l -1.05988,-1.04625 z m -18.21652,-1.91795 c -0.58083,-6.08781 -15.06616,-7.29945 -6.59235,-0.12222 1.72531,0.82333 5.34158,2.81407 6.59235,0.12222 z m -4.83527,-1.5388 c 1.81992,-1.87714 3.31888,3.059 0,0 l 0,0 z m -12.58277,-2.71072 c -7.50691,-6.13319 9.4022,3.9522 -0.35911,-2.97338 -8.43939,-1.5136 6.31256,10.58902 0.35911,2.97338 z m 20.67798,-0.46624 c -1.14965,-8.57945 -15.1627,-5.15993 -4.41253,0.6765 1.36857,0.55353 3.46571,0.81401 4.41253,-0.6765 z m -5.16116,-2.38966 c -4.55664,-4.47359 7.51463,4.86946 0,0 z m -10.10561,-1.11368 c -0.56735,-7.80487 -11.53718,-1.95272 -2.47577,0.62385 l 1.4088,-0.0743 1.06697,-0.54958 z m -3.33552,-1.33115 c -2.57941,-3.6436 5.49761,3.19613 0,0 z m 24.36364,0.49475 c -1.01362,-7.48491 -16.03253,-6.81433 -5.44189,0.0583 1.49705,1.05083 4.46364,2.42289 5.44189,-0.0583 z m -5.50286,-2.5541 c -6.89926,-5.96479 8.84553,6.04629 0,0 z m -12.32184,-1.00366 c -0.96414,-9.66195 -12.47525,-0.72306 -1.63943,0.96004 l 0.93807,-0.28356 0.70136,-0.67648 0,0 z m -3.51888,-1.41282 c -1.47461,-5.13311 4.53217,3.78819 0,0 z m 22.97994,0.52552 c -5.42546,-2.61601 3.00801,-5.13916 -4.44231,-4.59184 -3.51467,1.45027 3.7989,7.4217 4.44231,4.59184 z m -18.97994,-4.52552 c -1.52673,-3.99498 6.0795,4.88803 1.79652,-2.24373 -7.98525,-4.01012 0.20801,8.80793 -1.79652,2.24373 z m 30.97994,-1.98899 c -4.14829,-3.54036 -6.19279,-2.33768 0,0 z m -24.24971,-2.28465 c -3.60645,-7.40467 -7.00127,6.42077 0,0 z m -2.75029,-0.30955 c 2.03304,-2.19464 2.26407,3.34627 0,0 z m 20,-4.440979 c -6.66315,-4.961871 2.68683,4.513949 0,0 z m -3.91667,114.239339 c 5.33369,-6.14134 5.85678,-0.89063 0,0 l 0,0 z m 53.03229,-2.83752 c -4.1752,-18.41114 4.4595,10.57784 0,0 z m -62.36562,-2.5641 c 3.96764,-0.84658 3.35327,1.57428 0,0 z m -7.01667,-1.46181 c 5.83924,-3.22761 -2.65582,3.43918 0,0 z m 4.5357,-1.5689 c 6.50737,-0.73853 0.14775,1.54468 0,0 z m 69.16082,-6.62922 c -0.86875,-6.19456 0.69577,-12.17976 0.55143,-2.22792 0.62765,1.07322 4.19316,4.0923 -0.55143,2.22792 z m 1.70633,-7.346 c -2.44069,-7.87456 1.60914,-3.63966 0.17297,1.61792 l -0.17297,-1.61792 z m -13.05723,-0.91512 c 0.97256,-3.5458 0.62176,4.34078 0,0 z m -127.31729,-2.12393 c 8.40504,-0.74746 0.6931,1.45999 0,0 z m 125.80263,-1.99961 c -0.66285,-4.19238 2.79193,4.30271 0,0 z m 10.98748,-0.13001 c -3.18093,-4.16426 -11.11991,-19.84282 -2.25973,-8.59295 0.0308,2.26678 8.66397,11.15495 1.77389,3.10125 -2.94155,-2.44332 4.64429,11.63617 0.48584,5.4917 z m 4.07967,-4.13742 c -2.22668,-5.12482 -14.92629,-15.43384 -3.76429,-6.87376 4.19322,1.42064 9.62321,16.97309 3.76429,6.87376 l 0,0 z m 19.14499,1.04423 c 1.63165,-11.23753 -13.23974,-17.46551 -18.27643,-20.57333 9.74472,1.83132 24.82075,12.46501 18.20183,22.53493 l 0.0746,-1.9616 z m -39.77643,-3.81085 c -9.21509,-11.27944 12.14459,10.89697 1.76977,1.77855 l -1.76977,-1.77855 0,0 z m -68.44754,2.20443 c -7.02599,0.20855 -8.15462,-6.54751 -0.71883,-2.67616 1.11184,0.54913 5.37614,7.01975 0.71883,2.67616 z m 115.90563,-0.0756 c 2.9507,-10.31884 -17.01138,-20.63168 -16.06331,-21.69836 8.66511,2.37934 21.57136,17.67607 16.06331,21.69836 z m -23.97138,-2.78278 c -2.88426,-5.05701 -19.19047,-14.66962 -5.48671,-7.57469 3.46573,-0.34264 10.96522,16.23899 5.48671,7.57469 z m -143.48671,-0.10513 c -5.52277,-4.5691 8.48755,4.41174 0,0 z m -7.75,-2.18933 c 8.06913,-0.71091 1.01086,1.52229 0,0 z m 99.982,-3.31067 c 0.54613,-7.34626 0.61546,7.26087 0,0 z m 34.51042,-3.91401 c -8.73106,-6.92245 5.03839,-0.16456 2.20035,1.32981 l -2.20035,-1.32981 0,0 z m -54.99242,-0.30648 c 3.87348,-3.32244 1.51061,-10.76241 3.85844,-2.50965 5.78445,-5.2675 -0.17742,4.64894 -5.15375,3.2818 l 1.29531,-0.77215 0,0 z m 113.9777,0.49876 c 6.38079,-0.71236 11.03878,0.82911 1.30902,0.36491 0.71176,0.22426 -3.71728,-0.2256 -1.30902,-0.36491 z m -7.9152,-0.96138 c 6.14919,-1.00312 -1.85776,1.93436 0,0 z m -86.17618,-2.62979 c -2.59544,-6.29065 -11.51222,-14.71126 -14.63632,-12.43897 -2.33548,-5.85978 -7.41162,-9.99744 -11.39078,-14.74813 8.79461,9.45136 21.54892,15.5692 27.16511,27.57453 0.74513,2.13748 -1.55764,1.46187 -1.13801,-0.38743 z m 94.62743,1.59532 c 8.01593,-0.74134 4.55278,1.26337 -0.67858,0.16323 l 0.67858,-0.16328 0,5e-5 z m 11.48625,-0.9447 c 3.96764,-0.84658 3.35327,1.57428 0,0 z m 6.79681,-0.24237 c -1.43506,-4.13407 11.80341,0.47845 1.71348,0.57942 l -1.71348,-0.57938 0,-4e-5 z m -24.7789,-1.82008 c 8.23273,-0.76074 6.50272,1.23303 -0.79543,0.15787 l 0.79543,-0.15787 z m 12.48209,0.0354 c 8.06913,-0.71091 1.01086,1.52229 0,0 z m -20.5,-0.97295 c 3.96764,-0.84658 3.35327,1.57428 0,0 z m 33.25,-1.78632 c 10.3196,-3.43578 22.66329,-9.45732 24.71251,-21.27497 3.28591,-5.56467 3.692,9.37915 -2.16236,10.4326 -8.05595,7.81132 -18.81836,12.76738 -30.05015,13.32933 2.5,-0.82899 5,-1.65797 7.5,-2.48696 z m -128.84211,-0.5514 c 1.02557,-6.06157 0.44569,5.68457 0,0 z m 55.84211,0 c -5.10056,-2.53035 11.70452,1.71156 2.35313,0.56545 l -2.35313,-0.56545 z m -60.77098,-3.57155 c -5.42719,-9.79799 7.24651,9.26055 0,0 z m 51.77098,1.57155 c -5.10056,-2.53035 11.70452,1.71156 2.35313,0.56545 l -2.35313,-0.56545 z m 32,0 c -2.57941,-3.6436 5.49761,3.19613 0,0 z m -19.1875,-0.68311 c 6.14919,-1.00312 -1.85776,1.93436 0,0 z m 7.32784,-0.46409 c -9.04178,-4.61393 13.07244,3.45446 0,0 z m -12.32784,-0.53591 c 6.14919,-1.00312 -1.85776,1.93436 0,0 z m 28.1875,-1.40624 c -4.96394,-5.39544 7.88528,5.82545 0,0 z m 26.75,1.36595 c 12.81714,-0.41472 3.83249,1.15619 0,0 z m -24.34501,-2.5266 c -6.27607,-7.32638 7.69421,7.26341 0,0 z m 13.86404,1.55701 c 6.50737,-0.73853 0.14775,1.54468 0,0 z m 22.54347,0.01 c 6.14919,-1.00312 -1.85776,1.93436 0,0 z m -77,-1 c 6.14919,-1.00312 -1.85776,1.93436 0,0 z m 14.45653,-0.01 c 6.50737,-0.73853 0.14775,1.54468 0,0 z m 66.54347,0.01 c 6.14919,-1.00312 -1.85776,1.93436 0,0 z m -73.5625,-1.00634 c 8.06913,-0.71091 1.01086,1.52229 0,0 z m -4.4375,-0.99378 c 6.14919,-1.00312 -1.85776,1.93436 0,0 z m 16,0 c 6.14919,-1.00312 -1.85776,1.93436 0,0 z m -73.40751,-2.56689 c -6.34086,-7.36713 7.63813,7.13093 0,0 z m 52.40751,1.56689 c 6.14919,-1.00312 -1.85776,1.93436 0,0 z m 16,0 c 6.14919,-1.00312 -1.85776,1.93436 0,0 z m 22.1875,-0.31689 c -2.57941,-3.6436 5.49761,3.19613 0,0 z m -42.1875,-0.68311 c 6.14919,-1.00312 -1.85776,1.93436 0,0 z m 13,0 c 6.14919,-1.00312 -1.85776,1.93436 0,0 z m 15,0 c 6.14919,-1.00312 -1.85776,1.93436 0,0 z m -127.24821,-2.02376 c -0.66285,-4.19238 2.79193,4.30271 0,0 z m 79.87684,0.1517 c -3.79577,-3.85968 8.46355,4.81819 0,0 z m 27.37137,0.87206 c 6.14919,-1.00312 -1.85776,1.93436 0,0 z m 14.9375,0.0208 c 3.96764,-0.84658 3.35327,1.57428 0,0 z m 41.25,-0.36979 c 19.00529,-2.30296 39.59303,-8.37791 51.92031,-24.02253 7.07092,-10.75324 -3.70166,8.3416 -7.68756,10.27831 -11.76705,10.98047 -28.65666,15.1761 -44.4575,14.34491 l -0.48687,-0.25178 0.71162,-0.34891 0,0 z m -71.1875,-0.65101 c 6.14919,-1.00312 -1.85776,1.93436 0,0 z m 23.9375,0.0208 c 3.96764,-0.84658 3.35327,1.57428 0,0 z m 39.51903,-0.0307 c 6.50737,-0.73853 0.14775,1.54468 0,0 z M 330.28025,141.0174 c -4.12741,-3.04025 -16.69815,-15.56563 -5.4813,-5.88094 3.79462,3.04877 21.52205,18.93363 8.31152,8.26433 l -1.36158,-1.1389 -1.46864,-1.24449 z m 70.76903,6.24093 c 6.50737,-0.73853 0.14775,1.54468 0,0 z m -119.03703,-3.30701 c 0.54613,-7.34626 0.61546,7.26087 0,0 z m 2.92589,1 c 1.02557,-6.06157 0.44569,5.68457 0,0 z m 80.04789,0.43158 c -1.97188,-3.47533 -7.79258,-5.40677 0.17489,-5.15524 4.3514,1.63708 7.93656,4.89805 0.84007,1.99933 -4.302,0.72042 5.47595,6.78805 -1.01496,3.15591 z m 5.3013,0.57987 c 1.73012,-1.88948 3.37651,3.046 0,0 z m 25.24292,0.32627 c 3.96764,-0.84658 3.35327,1.57428 0,0 z m 14,0 c 3.96764,-0.84658 3.35327,1.57428 0,0 z m -116.59211,-2.33772 c 1.02557,-6.06157 0.44569,5.68457 0,0 z m 97.59211,1.33772 c 3.96764,-0.84658 3.35327,1.57428 0,0 z m 14.0625,-0.0208 c 6.14919,-1.00312 -1.85776,1.93436 0,0 z m 12,0 c 6.14919,-1.00312 -1.85776,1.93436 0,0 z m 39.9375,0.0208 c 3.96764,-0.84658 3.35327,1.57428 0,0 z m 38.25,0.28472 c 6.02722,-7.2088 1.92276,0.67135 0,0 z m -97.1875,-1.30555 c 6.14919,-1.00312 -1.85776,1.93436 0,0 z m 14,0 c 6.14919,-1.00312 -1.85776,1.93436 0,0 z m 51.9375,0.0208 c 3.96764,-0.84658 3.35327,1.57428 0,0 z m 35.92146,-1.18938 c -5.50744,-3.71201 5.82221,-9.4175 1.91102,-0.89875 0.6022,0.71043 -3.43371,4.11117 -1.91102,0.89875 z m -92.85896,0.16855 c 6.14919,-1.00312 -1.85776,1.93436 0,0 z m 25.21572,-1.86593 c -7.95494,-7.09639 10.7172,6.9575 0,4e-5 l 0,-4e-5 z m 20.72178,1.88676 c 3.96764,-0.84658 3.35327,1.57428 0,0 z m 16.0625,-0.0208 c 6.14919,-1.00312 -1.85776,1.93436 0,0 z m -80,-1 c 6.14919,-1.00312 -1.85776,1.93436 0,0 z m 7.6875,-0.36359 c -0.45573,-1.96406 12.54075,2.56177 1.9333,0.57959 l -1.9333,-0.57959 0,0 z m 59.5,0.0467 c -5.10056,-2.53035 11.70452,1.71156 2.35313,0.56545 l -2.35313,-0.56545 z m 8.8125,-0.68311 c 6.14919,-1.00312 -1.85776,1.93436 0,0 z m -91.8125,-1.31689 c -3.41434,-3.48351 8.06913,3.7276 0,0 z m 17.75,0.33772 c 3.96764,-0.84658 3.35327,1.57428 0,0 z m 11,0 c 3.96764,-0.84658 3.35327,1.57428 0,0 z m 14.0625,-0.0208 c 6.14919,-1.00312 -1.85776,1.93436 0,0 z m 32.45653,-0.01 c 6.50737,-0.73853 0.14775,1.54468 0,0 z m 31.73097,-0.80692 c 7.51963,-4.24205 0.184,2.44695 -1.47187,1.00932 l 1.47187,-1.00932 z m -82.1875,-0.18311 c 6.14919,-1.00312 -1.85776,1.93436 0,0 z m 56.9375,0.0208 c 3.96764,-0.84658 3.35327,1.57428 0,0 z m -103.19113,-1.86949 c -4.40346,-5.51253 7.33566,5.24767 0,0 z m 42.25363,0.84869 c 6.14919,-1.00312 -1.85776,1.93436 0,0 z m 12.9375,0.0208 c 3.96764,-0.84658 3.35327,1.57428 0,0 z m 14.75,-1.42273 c -9.44054,-4.57769 15.07369,4.64524 2.02031,0.74903 l -2.02031,-0.74903 z m 38.3125,1.4019 c 6.14919,-1.00312 -1.85776,1.93436 0,0 z m -87.8125,-1.31686 c -3.41434,-3.48351 8.06913,3.7276 0,0 z m 8.8125,0.31689 c 6.14919,-1.00312 -1.85776,1.93436 0,0 z m 19.45653,-0.01 c 6.50737,-0.73853 0.14775,1.54468 0,0 z m 47.76354,-0.49365 c 2.90097,-6.99477 10.90799,-1.09711 3.13579,1 -0.42262,-0.0435 -3.15746,0.44117 -3.13579,-1 z m 36.96743,0.79258 c 3.29879,-3.30675 13.14078,-6.73378 3.98466,-1.61042 -1.29993,0.58065 -2.50685,1.51979 -3.98466,1.61042 z m -200.15838,-2.29665 c -1.98528,-6.09444 7.86922,5.32944 0,0 l 0,0 z m 110.97088,1.00772 c 6.14919,-1.00312 -1.85776,1.93436 0,0 z m 32.6875,-0.31689 c 0.30797,-3.53542 4.42066,3.57239 0,0 z m -36.6875,-0.68311 c 6.14919,-1.00312 -1.85776,1.93436 0,0 z m 13,0 c 6.14919,-1.00312 -1.85776,1.93436 0,0 z m -34.8125,-1.81689 c -5.91942,-4.61958 9.95447,4.60977 0,0 z m 17.8125,0.81689 c 6.14919,-1.00312 -1.85776,1.93436 0,0 z m 12,0 c 6.14919,-1.00312 -1.85776,1.93436 0,0 z m 10.6875,-0.31689 c -1.75651,-2.72486 10.54703,3.12363 0,0 z m 20.5,0 c 6.79512,-2.93665 11.4801,3.69536 0,0 z m -36.1875,-0.68311 c 6.14917,-1.00312 -1.85775,1.93437 0,0 z m 22.1875,-0.87397 c -4.94732,-2.48447 -19.69571,-3.41992 -19.25,-5.34419 7.98772,0.31609 -1.4846,-6.18847 7.75,-3.08729 8.06862,-0.31541 -7.69642,2.8118 2.27374,4.98207 3.97601,-0.83439 17.51076,3.03588 10.68162,4.05092 l -1.45536,-0.60151 0,0 z m 28,0.005 c 10.00384,-3.39319 2.34184,1.46087 -2.92148,1.30041 0.71745,-0.83996 2.04056,-0.78143 2.92148,-1.30041 z m 29,1.16835 c 4.78742,-3.32529 3.468,1.73842 0,0 z m -103,-2.11627 c -5.48358,-4.30543 11.41466,4.78031 0,4e-5 l 0,-4e-5 z m 8,0.5 c -1.70228,-2.93495 7.86103,3.34247 0,0 z m 20.5,0 c -5.13821,-2.60215 15.4373,2.26276 1.36211,0.2964 l -1.36211,-0.2964 z m 25.25,0.33772 c 3.96764,-0.84658 3.35327,1.57428 0,0 z m 58.25,0.23265 c 4.88392,-4.69357 5.04066,-0.82256 0,0 z m 5,0.0798 c 4.89353,-5.24423 5.88176,-1.59144 0,2e-5 l 0,-2e-5 z m -57.1875,-1.3333 c 6.14917,-1.00312 -1.85775,1.93437 0,0 z m -37,-1 c 6.14917,-1.00312 -1.85775,1.93437 0,0 z m 103.1875,0.51624 c 2.44171,-2.87666 12.87529,-16.72536 6.5301,-6.76375 -1.87956,2.19782 -3.88866,5.81107 -6.5301,6.76375 z m -107.1875,-1.51622 c 6.14917,-1.00312 -1.85775,1.93437 0,0 z m 34.4375,-0.006 c 8.06913,-0.71091 1.01086,1.52229 0,0 z m 29.75,0.33952 c 4.89344,-5.24402 5.88181,-1.59167 0,-2.2e-4 l 0,2.2e-4 z m -68.1875,-1.3333 c 6.14917,-1.00312 -1.85775,1.93437 0,0 z m 99.1875,0.19387 c 8.59953,-6.27183 22.25726,-20.05823 11.8241,-30.317301 11.66907,7.654921 -0.70774,24.487391 -9.76207,29.853441 -0.43896,-0.12378 -1.61502,1.35119 -2.06203,0.46386 z m 12.6007,-3.45373 c 2.13104,-2.95506 10.05337,-12.27676 3.49364,-3.30436 -0.43173,0.52165 -6.3794,6.82061 -3.49364,3.30436 z m -202.15957,1.38758 c -4.55664,-4.47359 7.51463,4.86946 0,0 z m 19.52636,-1.99743 c -6.25754,-13.1402 7.75535,11.46811 0,0 z m 62.03251,1.5526 c -1.70228,-2.93495 7.86103,3.34247 0,0 z m 13.8125,0.31689 c 6.14917,-1.00312 -1.85775,1.93437 0,0 z m 32.59015,-0.31503 c 11.8535,-0.51839 22.30341,-7.08379 29.87514,-15.84073 -7.20814,10.75901 -20.40604,17.68846 -33.55305,16.55082 -7.89216,0.34748 -2.701,-0.11894 2.18762,-0.56653 0.49677,-0.0478 0.99353,-0.0957 1.49029,-0.14356 z m 27.19111,-5.50186 c 4.11001,-4.706 14.85052,-15.56194 6.32618,-4.68706 -4.23012,4.16262 -16.42069,14.87082 -6.32618,4.68706 l 0,0 z m 42.40624,6.05565 c 2.68365,-3.53128 10.54281,-11.72346 4.05924,-3.80565 -0.85925,0.55748 -3.12781,5.1967 -4.05924,3.80565 z m -109.5,-1.55565 c -1.75651,-2.72486 10.54703,3.12363 0,0 z m 72.16667,0.33333 c -2.68885,-5.15163 3.66934,1.17547 0,0 z m 7.11796,-2.41666 c 4.44841,-5.99316 8.514,-1.86119 1.92142,-1.10654 -3.49579,3.06174 -7.01581,6.49173 -1.92142,1.10654 z m -68.97213,1.40022 c 6.14917,-1.00312 -1.85775,1.93437 0,0 z m 29.6875,-1.31689 c 8.73818,-2.24294 4.26442,1.44709 -2.10262,0.64188 l 2.10262,-0.64188 z m -57.75,-1.57197 c -8.39396,-5.75331 12.11206,5.24493 0,0 z m 28.0625,0.88886 c 6.14917,-1.00312 -1.85775,1.93437 0,0 z m 4.89886,-1.31998 c -14.27735,-2.37439 9.43339,-0.70501 13.69279,-1.23092 12.42998,-0.74965 25.85931,-3.21779 35.08154,-12.26599 -11.32893,14.14205 -32.12661,15.16344 -48.77433,13.49691 z m 33.78864,0.003 c 8.96217,-3.403 -3.16201,3.40259 0,0 z m 4.5,-1.42963 c 4.88392,-4.69357 5.04066,-0.82256 0,0 z m -64.019,-2.09326 c -1.85224,-4.89342 5.27729,5.01947 0,0 z m 136.251,-1.47711 c 0.54613,-7.34626 0.61546,7.26087 0,0 z m -40.5366,-1.48744 c 5.84601,-9.65732 -4.05272,10.46293 0,0 z m -157.73172,-1.01256 c -2.47052,-16.278063 17.76938,-28.523735 31.67072,-20.460498 12.46416,7.847638 -10.53068,-5.087282 -15.92998,-0.481582 -11.1555,0.214285 -13.60395,17.89108 -15.74074,20.94208 l 0,0 z m 192.27383,-2.31827 c 3.2594,-8.26623 5.09772,4.84295 -0.66956,2.20409 l 0.66952,-2.20409 4e-5,0 z m -138.73043,-1.17028 c 1.81992,-1.87714 3.31888,3.059 0,0 l 0,0 z m 84.13091,-5.5114 c 6.96225,-10.099978 -5.05972,8.99179 0,0 z m -157.64877,-3.98701 c -0.93768,-8.956837 2.11091,-6.636798 1.9553,0.0539 -0.34147,1.10943 -3.94409,2.42256 -1.9553,-0.0539 z M 450.9752,96.451281 c 1.15989,-6.891982 0.3125,7.058219 0,0 z m -105.5011,-3.13948 c 0.0657,-4.911682 6.86037,1.976915 0,0 l 0,0 z m 103.45041,-3.11052 c -2.108,-6.977216 4.37336,7.969772 0,0 z m -106.33176,-7.93311 c 6.1492,-1.00312 -1.85778,1.93436 0,0 z m -12.0848,-2.03862 c 6.38079,-0.71236 11.03878,0.829103 1.30902,0.364914 0.71178,0.224265 -3.71729,-0.225617 -1.30902,-0.364914 z m -0.4777,-1.9676 c 8.06913,-0.710914 1.01086,1.522286 0,0 z m -7,-3 c 8.06913,-0.710914 1.01086,1.522286 0,0 z m 10.5625,-2.99378 c 6.1492,-1.003121 -1.85778,1.934364 0,0 z m -39.5625,-1.00622 c 8.06913,-0.710914 1.01086,1.522286 0,0 z m 28.01375,-1.02825 c 8.01628,-0.74159 4.55234,1.263632 -0.67858,0.163366 l 0.67858,-0.163416 0,5e-5 z m -27.45125,-0.96553 c 6.1492,-1.00312 -1.85778,1.93436 0,0 z m 38.19397,-0.25123 c 4.7527,-2.893742 13.50746,-4.286039 4.00699,0.02999 -0.4745,0.741233 -9.67009,1.432863 -4.00699,-0.02999 z m 10.78381,-1.74891 c 3.07535,-5.588957 1.00039,6.900029 0,0 z m -8.79028,-2.81675 c 7.51963,-4.242047 0.184,2.446951 -1.47188,1.009322 l 1.47188,-1.009322 z m 6.22619,-3.07872 c 3.71689,-3.342828 1.26725,1.103818 -1.16919,1.359237 l 1.16919,-1.359237 z M 473.97625,176.50463 c 5.49878,0.051 13.97084,-8.11711 3.10831,-5.51515 -8.40349,4.79259 -22.29705,-2.63656 -27.22593,3.27862 4.42179,6.34534 17.39885,3.01429 24.11762,2.23653 z m -14.42809,-1.27799 c 8.23273,-0.76074 6.50272,1.23303 -0.79543,0.15787 l 0.79543,-0.15787 z m -5.95541,-0.95838 c 6.14919,-1.00312 -1.85776,1.93436 0,0 z m 18,0 c 6.14919,-1.00312 -1.85776,1.93436 0,0 z m -85.8125,-7.31687 c -7.80324,-3.58796 3.08334,3.35011 0,0 z m 26.5,-57.12129 c 5.5977,-1.52791 15.8456,-15.315075 4.18328,-8.51112 -4.07797,3.14965 -12.13124,7.59102 -3.77191,1.73303 4.87094,-3.455311 14.62684,-12.095571 11.2645,-16.759066 -3.52048,1.970354 -13.63336,13.862826 -12.97017,11.601724 7.44512,-6.8087 16.28715,-16.266549 13.8343,-27.176947 -7.75422,-8.127328 -2.50942,14.044392 -10.35655,16.053212 -8.26663,9.346691 -20.90938,13.229287 -33.18345,14.130237 9.47701,-1.220428 17.06312,-7.722009 25.07684,-12.084459 -5.83353,-2.979279 -17.90723,7.331521 -26.95027,6.008468 -4.65125,-0.177211 -20.9692,-1.968166 -11.24701,4.90657 9.35395,-1.451373 -4.09589,4.721481 5.98897,6.112201 10.54394,-0.73023 -4.99595,2.29691 3.39263,5.34094 4.42164,1.97339 13.75618,-1.90408 11.44697,3.28594 7.91266,1.08246 16.52959,-0.1988 23.29187,-4.64073 z m -16.6875,2.43811 c 6.14917,-1.00312 -1.85775,1.93437 0,0 z m -1.0625,-1.97917 c 3.96764,-0.84658 3.35327,1.57428 0,0 z m -12.48625,-1.0553 c 8.01593,-0.74134 4.55278,1.26337 -0.67858,0.16323 l 0.67858,-0.16328 0,5e-5 z m 9.48625,-0.9447 c 3.96764,-0.84658 3.35327,1.57428 0,0 z m 6.75,-1.33772 c 8.96217,-3.403 -3.16201,3.40259 0,0 z m -10.6875,-0.68311 c 6.14917,-1.00312 -1.85775,1.93437 0,0 z m 25.1875,0.30555 c 6.02722,-7.208803 1.92276,0.67135 0,0 z m -9.91667,-0.98699 c 7.41834,-4.72239 4.92693,-0.63083 0,0 z m -25.08333,-0.90519 c 11.11086,-2.54858 23.16113,-3.41348 32.67655,-10.434674 -8.01397,8.267994 -21.60223,10.020994 -32.67655,10.434674 z m -4.1875,-1.41337 c 6.1492,-1.00312 -1.85778,1.93436 0,0 z m 44.90972,-1.36729 c 7.6876,-5.877821 -6.02086,6.15637 -0.35688,0.37556 l 0.35688,-0.37556 z m -2.72222,-4.449599 c 5.24668,-5.580431 0.93962,1.17228 -1.84863,2.5 l 0.33678,-0.734375 1.51185,-1.765625 z m -45.23834,-0.20726 c 8.40504,-0.747466 0.69309,1.459992 0,0 z m 11.05084,0.0242 c 6.14922,-1.003115 -1.85779,1.934355 0,0 z m 5,-1 c 6.14922,-1.003115 -1.85779,1.934355 0,0 z m 27.83791,-5.33821 c 2.87989,-3.585325 10.98678,-14.948143 4.39591,-4.280498 -0.22935,1.171214 -9.22659,10.0302 -4.39591,4.280498 z m 6.34959,0.0213 c 4.95991,-6.471417 -2.69288,6.184561 0,0 z m 1.25218,-14.5 c 0.64841,-7.791877 0.51637,8.517306 0,0 z m 1.82677,-3.08333 c 0.97256,-3.5458 0.62176,4.340778 0,0 z M 293.97122,46.204601 c 0,0 0,0 0,0 z"
       id="path3347"
       inkscape:connector-curvature="0" />
  </g>
</svg>
